<svg xmlns="http://www.w3.org/2000/svg" viewBox="0 0 146.09 153.55"><defs><style>.cls-1{fill:#e10012;}.cls-2{fill:#fff;}.cls-3{fill:#767575;}</style></defs><g id="圖層_2" data-name="圖層 2"><g id="Layer_1" data-name="Layer 1"><rect class="cls-1" x="0.96" width="138.23" height="138.23"/><path class="cls-2" d="M24.71,100.12l.44-.51A4.51,4.51,0,0,0,28.46,101c1.38,0,2.32-.78,2.32-1.83v0c0-1-.51-1.54-2.6-2s-3.11-1.2-3.11-2.59v0c0-1.36,1.26-2.42,3-2.42a4.58,4.58,0,0,1,3.16,1.12l-.43.54a4,4,0,0,0-2.75-1c-1.36,0-2.25.78-2.25,1.74v0c0,1,.5,1.57,2.68,2s3,1.19,3,2.54v0c0,1.49-1.28,2.52-3,2.52A5.21,5.21,0,0,1,24.71,100.12Z"/><path class="cls-2" d="M28.42,101.87a5.55,5.55,0,0,1-3.9-1.54l-.2-.18.81-.93.21.19a4.2,4.2,0,0,0,3.12,1.29c1.21,0,2.05-.64,2.05-1.55,0-.69-.18-1.28-2.39-1.72S24.8,96.1,24.8,94.57s1.39-2.72,3.23-2.72A4.89,4.89,0,0,1,31.36,93l.22.18-.79,1L30.58,94A3.7,3.7,0,0,0,28,93c-1.14,0-2,.61-2,1.46,0,.7.19,1.3,2.47,1.77s3.24,1.32,3.24,2.81C31.74,100.72,30.37,101.87,28.42,101.87Zm-3.33-1.78a4.93,4.93,0,0,0,3.33,1.23c1.63,0,2.78-.92,2.78-2.24s-.82-1.89-2.81-2.3-2.9-1-2.9-2.28,1.06-2,2.52-2a4.22,4.22,0,0,1,2.71.92l.08-.1A4.24,4.24,0,0,0,28,92.4c-1.53,0-2.68.92-2.68,2.14,0,1.07.49,1.87,2.88,2.35,2.06.42,2.83,1,2.83,2.23s-1.1,2.13-2.6,2.13A4.63,4.63,0,0,1,25.18,100Z"/><path class="cls-2" d="M35.71,96.88v0a4.63,4.63,0,1,1,9.26,0s0,0,0,0a4.63,4.63,0,1,1-9.26,0Zm8.55,0v0a4,4,0,0,0-3.93-4.15,4,4,0,0,0-3.91,4.12v0a3.93,3.93,0,1,0,7.84,0Z"/><path class="cls-2" d="M40.33,101.9a4.86,4.86,0,0,1-4.9-5,4.93,4.93,0,0,1,4.92-5.06,4.84,4.84,0,0,1,4.89,4.9l.11.1-.11.14A4.93,4.93,0,0,1,40.33,101.9Zm0-9.53a4.49,4.49,0,0,0,0,9,4.38,4.38,0,0,0,4.36-4.49v0A4.3,4.3,0,0,0,40.35,92.37Zm0,8.91a4.27,4.27,0,0,1-4.21-4.42,4.21,4.21,0,0,1,4.19-4.42,4.27,4.27,0,0,1,4.2,4.42A4.2,4.2,0,0,1,40.35,101.28Zm0-8.29a3.66,3.66,0,0,0-3.64,3.84,3.74,3.74,0,0,0,3.66,3.9A3.67,3.67,0,0,0,44,96.88,3.74,3.74,0,0,0,40.33,93Z"/><path class="cls-2" d="M49.7,97.63V92.25h.69v5.32c0,2.17,1.17,3.42,3.11,3.42s3.07-1.13,3.07-3.36V92.25h.68v5.31c0,2.64-1.54,4-3.77,4S49.7,100.21,49.7,97.63Z"/><path class="cls-2" d="M53.48,101.88c-2.5,0-4-1.62-4-4.25V92h1.23v5.59c0,2,1,3.15,2.84,3.15s2.79-1.1,2.79-3.09V92h1.24v5.58C57.53,100.22,56,101.88,53.48,101.88ZM50,92.53v5.1c0,2.32,1.3,3.7,3.5,3.7S57,99.92,57,97.56v-5h-.14v5.1c0,2.28-1.24,3.63-3.34,3.63s-3.39-1.38-3.39-3.69v-5Z"/><path class="cls-2" d="M62.48,92.25h3.87a3.68,3.68,0,0,1,2.6.91,2.45,2.45,0,0,1,.69,1.71v0c0,1.54-1.14,2.42-2.7,2.63l3,3.93h-.88l-2.93-3.81h-3v3.81h-.69ZM66.27,97c1.54,0,2.69-.78,2.69-2.11v0c0-1.24-1-2-2.65-2H63.17V97Z"/><path class="cls-2" d="M70.54,101.74H69l-2.93-3.82H63.44v3.82H62.21V92h4.14a3.89,3.89,0,0,1,2.79,1,2.72,2.72,0,0,1,.78,1.9,2.86,2.86,0,0,1-2.48,2.85Zm-1.29-.55h.17l-3-3.87.31,0a3.77,3.77,0,0,1-.48,0H62.89V92.61h3.42c1.8,0,2.92.88,2.92,2.29a2.35,2.35,0,0,1-2.11,2.32,2.41,2.41,0,0,0,2.25-2.32,2.21,2.21,0,0,0-.62-1.55,3.41,3.41,0,0,0-2.4-.82H62.76v8.66h.13V97.37h3.4l.11.11Zm-5.81-4.44h2.83c1.47,0,2.41-.71,2.41-1.83s-.88-1.76-2.37-1.76H63.44Z"/><path class="cls-2" d="M74,96.88v0a4.63,4.63,0,0,1,4.61-4.76,4.85,4.85,0,0,1,3.58,1.47l-.49.5a4.2,4.2,0,0,0-3.1-1.36,4,4,0,0,0-3.89,4.12v0a4,4,0,0,0,3.9,4.14,4.21,4.21,0,0,0,3.17-1.43l.46.45a4.84,4.84,0,0,1-3.66,1.6A4.58,4.58,0,0,1,74,96.88Z"/><path class="cls-2" d="M78.55,101.9a4.83,4.83,0,0,1-4.85-5,4.91,4.91,0,0,1,4.88-5.06,5.1,5.1,0,0,1,3.76,1.55l.21.19-.87.9-.2-.19A4,4,0,0,0,78.57,93,3.65,3.65,0,0,0,75,96.83a3.72,3.72,0,0,0,3.62,3.9,3.94,3.94,0,0,0,3-1.36l.19-.18.85.83-.2.19A5.15,5.15,0,0,1,78.55,101.9Zm0-9.53a4.36,4.36,0,0,0-4.33,4.49,4.3,4.3,0,0,0,4.3,4.49A4.47,4.47,0,0,0,81.82,100l-.07-.07a4.34,4.34,0,0,1-3.17,1.33,4.43,4.43,0,0,1,0-8.84,4.43,4.43,0,0,1,3.1,1.25l.09-.11A4.49,4.49,0,0,0,78.58,92.37Z"/><path class="cls-2" d="M86.7,92.25h.68v9.21H86.7Z"/><path class="cls-2" d="M87.65,101.74H86.42V92h1.23Zm-.68-.55h.13V92.53H87Z"/><path class="cls-2" d="M92.74,92.25h.65l6.35,8v-8h.66v9.21h-.51L93.4,93.28v8.18h-.66Z"/><path class="cls-2" d="M100.67,101.74h-.92l-.08-.11-6-7.56v7.67H92.47V92h1l.08.1,5.87,7.4V92h1.2Zm-.65-.55h.11V92.53H100v8.52l-6.76-8.52h-.1Zm-7,0h.11V92.53H93Z"/><path class="cls-2" d="M105.27,96.88v0a4.59,4.59,0,0,1,4.55-4.76,4.8,4.8,0,0,1,3.37,1.21l-.45.51a4.14,4.14,0,0,0-3-1.11,3.92,3.92,0,0,0-3.8,4.12v0a3.85,3.85,0,0,0,4,4.16,4.7,4.7,0,0,0,2.93-1.06V97.32h-3.08v-.63h3.74v3.55a5.53,5.53,0,0,1-3.62,1.38A4.49,4.49,0,0,1,105.27,96.88Z"/><path class="cls-2" d="M109.9,101.9a4.74,4.74,0,0,1-4.9-5,4.89,4.89,0,0,1,4.82-5.06,5.09,5.09,0,0,1,3.55,1.28l.21.17-.81.94-.21-.18a3.83,3.83,0,0,0-2.78-1,3.65,3.65,0,0,0-3.52,3.84,3.58,3.58,0,0,0,3.67,3.91,4.44,4.44,0,0,0,2.66-.91V97.59h-3.08V96.41h4.28v4l-.09.08A5.75,5.75,0,0,1,109.9,101.9Zm-.08-9.53a4.36,4.36,0,0,0-4.28,4.49,4.24,4.24,0,0,0,4.36,4.49,5.26,5.26,0,0,0,3.35-1.24V97h-3.19v.09h3.08v3l-.1.08a5,5,0,0,1-3.11,1.12,4.09,4.09,0,0,1-4.22-4.43,4.2,4.2,0,0,1,4.07-4.42,4.34,4.34,0,0,1,2.93,1l.08-.1A4.56,4.56,0,0,0,109.82,92.37Z"/><path class="cls-2" d="M118.72,83.58h-9.61a.82.82,0,1,1,0-1.64h9.61a2.1,2.1,0,0,0,1.88-.87,3.43,3.43,0,0,0-.06-3.2l-5.92-13.79a6.54,6.54,0,0,1,.3-6.32c1.43-2.16,4.25-3.4,7.75-3.4h17.48a.82.82,0,0,1,0,1.64H122.67c-2.93,0-5.25,1-6.37,2.67a4.84,4.84,0,0,0-.17,4.76l5.92,13.79A5,5,0,0,1,122,82,3.74,3.74,0,0,1,118.72,83.58Z"/><path class="cls-1" d="M115.25,60.46c-1.62,0-3.87-.18-6.26-.36s-5-.39-6.81-.39v-1.4c1.9,0,4.45.2,6.92.39s4.58.35,6.15.35c1.32,0,2-.45,2.07-.63h1.4C118.72,59.6,117.26,60.46,115.25,60.46Z"/><path class="cls-3" d="M.88,146.21h.83l2.63,3.94L7,146.21h.82v7.22H7v-5.85l-2.63,3.87h0l-2.63-3.86v5.84H.88Z"/><path class="cls-3" d="M12.67,146.16h.76l3.29,7.27h-.88L15,151.52H11.07l-.86,1.91H9.38Zm2,4.63L13,147.11l-1.65,3.68Z"/><path class="cls-3" d="M18.31,146.21h.81v4.31l4.14-4.31h1.06l-3.1,3.16,3.23,4.06h-1l-2.77-3.5-1.54,1.56v1.94h-.81Z"/><path class="cls-3" d="M26,146.21h.81v7.22H26Z"/><path class="cls-3" d="M29.15,146.21h.77L34.47,152v-5.79h.79v7.22h-.65L30,147.51v5.92h-.8Z"/><path class="cls-3" d="M40.89,153.55a3.73,3.73,0,0,1-1.53-.29,3.37,3.37,0,0,1-1.16-.79,3.5,3.5,0,0,1-.73-1.18,4.05,4.05,0,0,1-.25-1.45v0a3.77,3.77,0,0,1,.26-1.42,3.67,3.67,0,0,1,.74-1.19,3.4,3.4,0,0,1,1.14-.82,3.53,3.53,0,0,1,1.48-.3,5.08,5.08,0,0,1,.82.06,3.69,3.69,0,0,1,.71.18,4.37,4.37,0,0,1,.61.31,4.89,4.89,0,0,1,.55.41l-.53.61a3.5,3.5,0,0,0-.43-.33,2.87,2.87,0,0,0-.49-.26,3,3,0,0,0-.58-.17,3.73,3.73,0,0,0-.7-.06,2.56,2.56,0,0,0-1.1.24,2.59,2.59,0,0,0-.86.63,2.94,2.94,0,0,0-.57.95,3.12,3.12,0,0,0-.21,1.14v0a3.6,3.6,0,0,0,.2,1.2,2.81,2.81,0,0,0,.58.94,2.48,2.48,0,0,0,.89.63,2.84,2.84,0,0,0,1.19.23,3.19,3.19,0,0,0,1.16-.21,3.34,3.34,0,0,0,.92-.51v-1.8H40.8v-.73h3v2.88a4.93,4.93,0,0,1-1.25.78A4.15,4.15,0,0,1,40.89,153.55Z"/><path class="cls-3" d="M53.14,153.55a3.73,3.73,0,0,1-1.53-.29,3.37,3.37,0,0,1-1.16-.79,3.5,3.5,0,0,1-.73-1.18,4.05,4.05,0,0,1-.25-1.45v0a3.77,3.77,0,0,1,.26-1.42,3.84,3.84,0,0,1,.74-1.19,3.5,3.5,0,0,1,1.14-.82,3.56,3.56,0,0,1,1.48-.3,5.31,5.31,0,0,1,.83.06,3.78,3.78,0,0,1,.7.18,4.37,4.37,0,0,1,.61.31,4.13,4.13,0,0,1,.55.41l-.53.61a3.5,3.5,0,0,0-.43-.33,2.87,2.87,0,0,0-.49-.26,3,3,0,0,0-.58-.17,3.69,3.69,0,0,0-.69-.06,2.57,2.57,0,0,0-1.11.24,2.7,2.7,0,0,0-.86.63,3.18,3.18,0,0,0-.78,2.09v0a3.6,3.6,0,0,0,.2,1.2,2.81,2.81,0,0,0,.58.94,2.44,2.44,0,0,0,.9.63,2.76,2.76,0,0,0,1.18.23,3.36,3.36,0,0,0,2.08-.72v-1.8H53.06v-.73h3v2.88a5,5,0,0,1-1.24.78A4.24,4.24,0,0,1,53.14,153.55Z"/><path class="cls-3" d="M58.16,146.21h3.11a3.42,3.42,0,0,1,1.19.19,2.41,2.41,0,0,1,.86.53,1.91,1.91,0,0,1,.41.63,2.06,2.06,0,0,1,.15.79v0a2.1,2.1,0,0,1-.15.82,1.82,1.82,0,0,1-.41.61,2.17,2.17,0,0,1-.62.44,3.17,3.17,0,0,1-.79.24l2.22,3h-1L61,150.62H59v2.81h-.82Zm3,3.68a2.45,2.45,0,0,0,.74-.1,1.73,1.73,0,0,0,.59-.3,1.23,1.23,0,0,0,.39-.46,1.38,1.38,0,0,0,.14-.62v0a1.24,1.24,0,0,0-.49-1,2.18,2.18,0,0,0-1.36-.38H59v2.93Z"/><path class="cls-3" d="M65.85,146.21h5.22v.73h-4.4v2.49h3.94v.73H66.67v2.54h4.45v.73H65.85Z"/><path class="cls-3" d="M75.77,146.16h.76l3.3,7.27H79l-.85-1.91H74.17l-.85,1.91h-.83Zm2,4.63-1.63-3.68-1.65,3.68Z"/><path class="cls-3" d="M82.46,147H80v-.75H85.7V147H83.28v6.47h-.82Z"/><path class="cls-3" d="M91.41,146.21h5.18V147H92.22v2.59h3.91v.73H92.22v3.15h-.81Z"/><path class="cls-3" d="M100.4,146.16h.76l3.29,7.27h-.88l-.84-1.91H98.8l-.86,1.91H97.1Zm2,4.63-1.65-3.68-1.64,3.68Z"/><path class="cls-3" d="M108.55,153.53a4.23,4.23,0,0,1-1.58-.28,4.52,4.52,0,0,1-1.37-.87l.5-.6a4.37,4.37,0,0,0,1.15.77,3.25,3.25,0,0,0,1.33.25,1.83,1.83,0,0,0,1.17-.35,1.08,1.08,0,0,0,.44-.88v0a1.33,1.33,0,0,0-.08-.45,1.07,1.07,0,0,0-.29-.36,2.07,2.07,0,0,0-.58-.3,6.91,6.91,0,0,0-.93-.26,7.44,7.44,0,0,1-1.08-.31,2.85,2.85,0,0,1-.76-.42,1.66,1.66,0,0,1-.45-.58,1.86,1.86,0,0,1-.14-.77v0a1.73,1.73,0,0,1,.67-1.41,2.48,2.48,0,0,1,.75-.42,3.16,3.16,0,0,1,1-.14,3.94,3.94,0,0,1,1.39.22,4.48,4.48,0,0,1,1.15.66l-.48.63a3.54,3.54,0,0,0-1-.59,3,3,0,0,0-1.07-.19,1.72,1.72,0,0,0-1.12.33,1,1,0,0,0-.42.84v0a1.06,1.06,0,0,0,.09.45.84.84,0,0,0,.29.37,2.09,2.09,0,0,0,.6.31,7.29,7.29,0,0,0,1,.27,4.07,4.07,0,0,1,1.78.74,1.61,1.61,0,0,1,.57,1.3v0a1.92,1.92,0,0,1-.18.84,1.77,1.77,0,0,1-.51.64,2.28,2.28,0,0,1-.77.42A3.43,3.43,0,0,1,108.55,153.53Z"/><path class="cls-3" d="M112.9,146.21h.82v3.21h4.16v-3.21h.81v7.22h-.81v-3.25h-4.16v3.25h-.82Z"/><path class="cls-3" d="M121.05,146.21h.81v7.22h-.81Z"/><path class="cls-3" d="M127.54,153.55a3.65,3.65,0,0,1-1.5-.3,3.6,3.6,0,0,1-1.17-.81,3.52,3.52,0,0,1-.74-1.18,3.81,3.81,0,0,1-.27-1.42v0a3.78,3.78,0,0,1,.27-1.42,3.51,3.51,0,0,1,.76-1.19,3.44,3.44,0,0,1,1.16-.82,3.93,3.93,0,0,1,3,0,3.49,3.49,0,0,1,1.16.8,3.56,3.56,0,0,1,.74,1.19,3.78,3.78,0,0,1,.27,1.42v0a3.81,3.81,0,0,1-.27,1.42,3.65,3.65,0,0,1-.75,1.19,3.74,3.74,0,0,1-1.17.82A3.69,3.69,0,0,1,127.54,153.55Zm0-.75a2.68,2.68,0,0,0,2-.87,3,3,0,0,0,.58-.93,3.19,3.19,0,0,0,.21-1.16v0a3.19,3.19,0,0,0-.21-1.16,3,3,0,0,0-.59-.95,2.91,2.91,0,0,0-.91-.63,2.86,2.86,0,0,0-2.27,0,2.91,2.91,0,0,0-.9.63,3,3,0,0,0-.58,1,3.09,3.09,0,0,0-.21,1.15v0a3.19,3.19,0,0,0,.21,1.16,2.81,2.81,0,0,0,1.5,1.58A2.68,2.68,0,0,0,127.56,152.8Z"/><path class="cls-3" d="M133.16,146.21h.76l4.55,5.79v-5.79h.79v7.22h-.65L134,147.51v5.92h-.8Z"/><path class="cls-3" d="M143,146h-.59v-.25h1.45V146h-.6v1.6H143Zm1.27-.25h.29l.66,1,.65-1h.27v1.85h-.25v-1.42l-.66,1h0l-.66-1v1.42h-.26Z"/><path class="cls-2" d="M4.39,81.94H0v1.64H4.39a.82.82,0,0,0,0-1.64Zm30.72,0H30.72a.82.82,0,1,0,0,1.64h4.39a.82.82,0,1,0,0-1.64Zm15.35,0H46.08a.82.82,0,1,0,0,1.64h4.38a.82.82,0,1,0,0-1.64Zm-7.68,0H38.4a.82.82,0,1,0,0,1.64h4.38a.82.82,0,1,0,0-1.64Zm-30.71,0H7.68a.82.82,0,1,0,0,1.64h4.39a.82.82,0,0,0,0-1.64Zm46.07,0H53.75a.82.82,0,0,0,0,1.64h4.39a.82.82,0,1,0,0-1.64Zm-30.71,0H23a.82.82,0,1,0,0,1.64h4.39a.82.82,0,1,0,0-1.64Zm-7.68,0H15.36a.82.82,0,0,0,0,1.64h4.39a.82.82,0,1,0,0-1.64Zm76.79,0H92.15a.82.82,0,1,0,0,1.64h4.39a.82.82,0,1,0,0-1.64Zm7.68,0H99.83a.82.82,0,0,0,0,1.64h4.39a.82.82,0,0,0,0-1.64Zm-38.4,0H61.43a.82.82,0,0,0,0,1.64h4.39a.82.82,0,1,0,0-1.64Zm46.08,0h-4.39a.82.82,0,1,0,0,1.64h4.39a.82.82,0,1,0,0-1.64Zm-38.4,0H69.11a.82.82,0,0,0,0,1.64H73.5a.82.82,0,1,0,0-1.64Zm7.68,0H76.79a.82.82,0,1,0,0,1.64h4.39a.82.82,0,1,0,0-1.64Zm7.68,0H84.47a.82.82,0,0,0,0,1.64h4.39a.82.82,0,0,0,0-1.64Z"/><path class="cls-2" d="M58.85,66.39l-.43-17.5c-.14-4.9.11-4.93,4.3-5.3l.15,0V41.92H54.39l-11.11,24L32.39,42l0-.09H24.16v1.65l.15,0c4.24.42,4.5.44,4.06,6.74l-.68,10.06a82,82,0,0,1-.91,8.83c-.32,1.91-1.14,2.48-4,2.77l-.14,0v1.65H34.25V72l-.15,0c-3.36-.35-4.22-.72-4.3-2.84s-.05-4.11.14-8l.7-13.29L41.29,73.22l0,.1h1.18L54.24,47l.19,19.43c0,5.11-.11,5.26-4,5.59l-.15,0v1.65h13V72h-.14C59.12,71.66,59,71.51,58.85,66.39ZM115,49.17c-.19-2.19-.44-5.31-.48-7.1v-.15H93v1.66h.14c3.63.28,4,.42,4,4.53V67.41c0,4.13-.41,4.3-4.11,4.58h-.15v1.66h13.47V72h-.15c-4.38-.29-4.64-.55-4.64-4.58V45.27c0-1.31.08-1.39,1.44-1.39h3.67c3.68,0,4.61.45,5.38,1.72a10.71,10.71,0,0,1,1.34,3.81l0,.14,1.69-.23ZM93.34,58.41l.14,0v-.66H80.88v.46H81c4.79.34,4.93.65,4.93,4v6.32c0,1.9-.5,2.52-1.46,3a9.62,9.62,0,0,1-4.14.81c-9.13,0-13.28-7.76-13.28-15,0-8.49,5.08-14.2,12.65-14.2,5.42,0,8.27,2.29,9.27,7.41l0,.16,1.66-.35,0-.14c-.34-3.23-.58-5.88-.72-7.54v-.12l-.12,0-1-.23a36.48,36.48,0,0,0-8.39-1.18c-9.27,0-18.63,5.19-18.63,16.79,0,9.81,7.19,16.41,17.9,16.41a43.75,43.75,0,0,0,9.6-1.45l1.27-.3.15,0,0-.16a22,22,0,0,1-.34-4.56V63.15C90.38,60.31,90.58,58.78,93.34,58.41Z"/><polygon class="cls-1" points="94.76 56.69 100.12 58.34 94.73 62.07 94.76 56.69"/><path class="cls-2" d="M114.91,56.13c-3.92,0-11.31.9-15.68.9s-22.81.33-25.38.33a35.14,35.14,0,0,0-4.61.34c-.25,0,0,0,0,0a33.19,33.19,0,0,0,4.61.35c2.57,0,21,.32,25.38.32s11.76.9,15.68.9c1.84,0,3.81-.7,3.81-1.59S116.75,56.13,114.91,56.13Zm-.59,2.47c-1.5,0-2.72-.39-2.72-.87s1.22-.87,2.72-.87,2.71.38,2.71.87S115.82,58.6,114.32,58.6Z"/><rect class="cls-1" x="101.49" y="49.11" width="1.08" height="18.38"/></g></g></svg>